#!OML:ASF F:\VICON\USERDATA\INSTALL\rory3\rory3.ASF
:FULLY-SPECIFIED
:DEGREES
385
root 0.655359 15.7676 -3.6294 343.712 -40.1446 -356.342
lowerback 22.7051 1.68027 -5.30953
upperback 9.51408 0.869519 2.26915
thorax -2.33506 0.118214 5.27758
lowerneck -14.8401 1.68117 -10.1006
upperneck 32.3394 4.91492 0.540751
head 13.1052 0.858761 2.66803
rclavicle 3.47873e-014 -2.62396e-014
rhumerus -23.7956 -0.989409 -71.4535
rradius 75.9564
rwrist 8.56999
rhand -33.8591 2.65214
rfingers 7.12502
rthumb -7.04357 -27.2107
lclavicle 3.47873e-014 -2.62396e-014
lhumerus -22.6787 -10.6912 86.6956
lradius 72.7083
lwrist -2.82739
lhand -29.6144 16.473
lfingers 7.12502
lthumb -2.94505 46.4324
rfemur -59.2638 -18.9285 17.2085
rtibia 98.3548
rfoot 14.6243 -11.9346
rtoes 11.5649
lfemur -56.0697 21.026 -24.8542
ltibia 95.52
lfoot 14.5881 -1.70659
ltoes -17.6405
386
root 0.655654 15.7606 -3.63277 343.582 -40.3814 -356.345
lowerback 22.582 1.86156 -5.25121
upperback 9.51247 1.12154 2.21272
thorax -2.30772 0.246097 5.12017
lowerneck -15.054 1.71178 -9.9849
upperneck 32.1594 4.92222 0.653127
head 13.0692 0.902883 2.69476
rclavicle 4.6118e-014 -3.97569e-015
rhumerus -23.9801 0.214708 -71.5113
rradius 77.2005
rwrist 9.0518
rhand -34.0774 2.68266
rfingers 7.12502
rthumb -7.25426 -27.173
lclavicle 4.6118e-014 -3.97569e-015
lhumerus -22.6495 -11.8092 87.0742
lradius 72.7918
lwrist -3.18346
lhand -28.1141 16.534
lfingers 7.12502
lthumb -1.49616 46.5085
rfemur -59.2355 -18.7766 17.3857
rtibia 98.9366
rfoot 14.6562 -12.0804
rtoes 13.0941
lfemur -55.6537 21.5513 -24.8668
ltibia 95.9011
lfoot 14.1923 -1.85199
ltoes -18.1817
387
root 0.656793 15.7523 -3.63257 343.497 -40.2694 -356.369
lowerback 22.4625 1.87839 -5.17909
upperback 9.48336 1.1653 2.15684
thorax -2.28487 0.272642 5.0069
lowerneck -15.2344 1.76843 -9.84632
upperneck 31.9283 4.98444 0.667608
head 13.0065 0.963169 2.68519
rclavicle 5.62561e-014 -1.74931e-014
rhumerus -23.9089 1.01745 -71.7204
rradius 77.9984
rwrist 10.0917
rhand -33.9605 3.02886
rfingers 7.12502
rthumb -7.14146 -26.8307
lclavicle 5.62561e-014 -1.74931e-014
lhumerus -22.7302 -12.7865 87.4863
lradius 72.9347
lwrist -3.21631
lhand -27.8586 16.1977
lfingers 7.12502
lthumb -1.24931 46.1738
rfemur -59.1592 -19.0947 17.5508
rtibia 99.4387
rfoot 14.8818 -11.8007
rtoes 12.3675
lfemur -55.2907 21.7282 -25.0025
ltibia 96.2546
lfoot 13.9581 -1.97733
ltoes -18.666
388
root 0.658888 15.7435 -3.62949 343.457 -40.1341 -356.416
lowerback 22.3174 1.88821 -4.95861
upperback 9.48261 1.22885 2.05621
thorax -2.21887 0.311579 4.75514
lowerneck -15.5389 1.74913 -9.72553
upperneck 31.7113 4.95294 0.706017
head 12.9816 0.981744 2.6779
rclavicle 2.48481e-014 3.18055e-015
rhumerus -23.3538 1.06939 -72.1178
rradius 77.9466
rwrist 11.6917
rhand -33.7645 3.67034
rfingers 7.12502
rthumb -6.95228 -26.1955
lclavicle 2.48481e-014 3.18055e-015
lhumerus -22.7533 -13.6903 87.8188
lradius 73.0538
lwrist -3.42205
lhand -27.3805 15.2295
lfingers 7.12502
lthumb -0.78757 45.2078
rfemur -59.0817 -19.5161 17.8168
rtibia 99.886
rfoot 15.3689 -11.0605
rtoes 10.0837
lfemur -55.0141 21.8611 -25.1313
ltibia 96.6299
lfoot 13.6981 -1.9719
ltoes -18.5027
389
root 0.65947 15.7376 -3.62686 343.324 -40.0582 -356.409
lowerback 22.183 1.98169 -4.66117
upperback 9.55234 1.41071 1.90094
thorax -2.09182 0.408379 4.37271
lowerneck -15.9478 1.68281 -9.49391
upperneck 31.5578 4.81888 0.799569
head 13.0112 0.972149 2.66264
rclavicle -1.11319e-014 -5.08889e-014
rhumerus -22.8604 1.01621 -72.5047
rradius 77.988
rwrist 13.0511
rhand -33.7952 4.13433
rfingers 7.12502
rthumb -6.98183 -25.7305
lclavicle -1.11319e-014 -5.08889e-014
lhumerus -22.5738 -14.669 88.047
lradius 73.0228
lwrist -4.32704
lhand -26.344 14.4642
lfingers 7.12502
lthumb 0.213547 44.4438
rfemur -58.9465 -19.8169 17.9545
rtibia 100.352
rfoot 15.8731 -10.3587
rtoes 8.07304
lfemur -54.6002 22.1087 -25.2075
ltibia 96.9745
lfoot 13.3598 -2.02616
ltoes -18.551
390
root 0.660022 15.7301 -3.62414 343.141 -40.0126 -356.383
lowerback 22.1526 2.03429 -4.52723
upperback 9.57931 1.50269 1.78502
thorax -2.05341 0.458748 4.14874
lowerneck -16.2583 1.72905 -9.32633
upperneck 31.4048 4.83037 0.949387
head 13.0066 1.02632 2.69839
rclavicle -1.01977e-013 7.15625e-015
rhumerus -22.4814 1.36508 -72.9213
rradius 78.2432
rwrist 14.2262
rhand -33.6779 4.4947
rfingers 7.12502
rthumb -6.86866 -25.3739
lclavicle -1.01977e-013 7.15625e-015
lhumerus -22.5738 -15.3482 88.2554
lradius 72.9963
lwrist -5.46994
lhand -25.4074 14.0252
lfingers 7.12502
lthumb 1.11808 44.002
rfemur -58.7473 -20.0284 17.9877
rtibia 100.829
rfoot 16.0106 -10.1635
rtoes 7.57423
lfemur -54.1032 22.4431 -25.2746
ltibia 97.2984
lfoot 13.0642 -2.50879
ltoes -19.9071
391
root 0.661916 15.7254 -3.62205 343.017 -39.96 -356.381
lowerback 22.0929 2.00601 -4.48221
upperback 9.5748 1.4749 1.69127
thorax -2.02334 0.447989 4.02865
lowerneck -16.4254 1.83315 -9.25983
upperneck 31.1007 4.94202 1.06176
head 12.9022 1.11597 2.74353
rclavicle -1.98785e-014 3.10104e-014
rhumerus -22.0917 1.98574 -73.3973
rradius 78.4712
rwrist 15.3716
rhand -33.4962 5.04539
rfingers 7.12502
rthumb -6.69325 -24.8288
lclavicle -1.98785e-014 3.10104e-014
lhumerus -22.7245 -15.8981 88.4921
lradius 72.9657
lwrist -6.02532
lhand -25.0995 13.4472
lfingers 7.12502
lthumb 1.41544 43.4223
rfemur -58.5407 -20.2098 18.0059
rtibia 101.276
rfoot 15.8892 -10.1619
rtoes 8.15835
lfemur -53.6141 22.6631 -25.3481
ltibia 97.5821
lfoot 12.665 -3.09191
ltoes -21.397
392
root 0.663962 15.7248 -3.62065 342.905 -39.9192 -356.313
lowerback 21.9039 2.029 -4.3945
upperback 9.61629 1.52668 1.55867
thorax -1.88553 0.475504 3.82493
lowerneck -16.5934 1.87787 -9.12812
upperneck 30.7208 4.96032 1.13179
head 12.7765 1.17092 2.74561
rclavicle -5.62561e-014 3.65764e-014
rhumerus -21.6875 2.39194 -73.8533
rradius 78.6121
rwrist 16.5497
rhand -33.2408 5.60653
rfingers 7.12502
rthumb -6.44671 -24.2754
lclavicle -5.62561e-014 3.65764e-014
lhumerus -22.7619 -16.6628 88.7496
lradius 72.9097
lwrist -6.1481
lhand -24.8319 12.881
lfingers 7.12502
lthumb 1.67395 42.8541
rfemur -58.3498 -20.3551 18.0164
rtibia 101.658
rfoot 15.9019 -9.88025
rtoes 7.96634
lfemur -53.1758 22.6613 -25.3788
ltibia 97.8356
lfoot 12.2967 -3.05657
ltoes -20.5486
393
root 0.666686 15.7253 -3.61682 342.823 -39.8992 -356.364
lowerback 21.7742 2.06023 -4.15916
upperback 9.64722 1.61741 1.48452
thorax -1.791 0.526656 3.59084
lowerneck -16.8081 1.92132 -8.98222
upperneck 30.4986 5.0034 1.13731
head 12.729 1.22008 2.72941
rclavicle -5.54609e-014 1.82882e-014
rhumerus -21.3494 2.67344 -74.2302
rradius 78.8094
rwrist 17.6079
rhand -32.8091 6.33416
rfingers 7.12502
rthumb -6.02994 -23.56
lclavicle -5.54609e-014 1.82882e-014
lhumerus -22.8452 -17.4995 89.1062
lradius 72.8096
lwrist -6.33287
lhand -24.4902 12.6234
lfingers 7.12502
lthumb 2.00392 42.5938
rfemur -58.0376 -20.5121 18.1272
rtibia 101.949
rfoot 15.991 -9.49752
rtoes 7.07914
lfemur -52.6716 22.6902 -25.2154
ltibia 98.0998
lfoot 11.9471 -2.91406
ltoes -19.1153
394
root 0.669051 15.7225 -3.61159 342.736 -39.8135 -356.412
lowerback 21.7346 2.07672 -3.98561
upperback 9.60723 1.67618 1.45609
thorax -1.81675 0.564135 3.44756
lowerneck -16.9233 2.00128 -8.84109
upperneck 30.3455 5.10402 1.09304
head 12.6883 1.28359 2.70262
rclavicle 1.15295e-014 1.98785e-015
rhumerus -21.2085 3.14077 -74.5548
rradius 79.2542
rwrist 18.5862
rhand -32.3172 6.78276
rfingers 7.12502
rthumb -5.55502 -23.1244
lclavicle 1.15295e-014 1.98785e-015
lhumerus -23.0642 -18.26 89.5402
lradius 72.6409
lwrist -6.74063
lhand -24.4591 12.5721
lfingers 7.12502
lthumb 2.03399 42.5422
rfemur -57.705 -20.7907 18.1885
rtibia 102.214
rfoot 15.935 -9.37086
rtoes 6.90142
lfemur -52.1181 22.8972 -25.1026
ltibia 98.3249
lfoot 11.6653 -3.19159
ltoes -18.5442
395
root 0.670459 15.7194 -3.60846 342.678 -39.7415 -356.441
lowerback 21.6574 2.08686 -3.86779
upperback 9.5953 1.71697 1.43979
thorax -1.79243 0.588833 3.35416
lowerneck -17.0675 2.10585 -8.69246
upperneck 30.1619 5.25127 1.01221
head 12.6407 1.36473 2.66742
rclavicle 4.22417e-014 3.18055e-015
rhumerus -21.0737 3.85956 -74.7874
rradius 79.7099
rwrist 19.5829
rhand -31.9914 6.9012
rfingers 7.12502
rthumb -5.24039 -23.014
lclavicle 4.22417e-014 3.18055e-015
lhumerus -23.171 -18.829 89.9217
lradius 72.3987
lwrist -7.08814
lhand -24.3271 12.4248
lfingers 7.12502
lthumb 2.16148 42.3936
rfemur -57.4024 -21.0221 18.2478
rtibia 102.443
rfoot 15.8552 -9.44689
rtoes 7.06401
lfemur -51.6655 23.1065 -25.0178
ltibia 98.5105
lfoot 11.5627 -3.83009
ltoes -17.966
396
root 0.670111 15.7194 -3.6015 342.566 -39.734 -356.313
lowerback 21.4947 2.12168 -3.85091
upperback 9.59002 1.77244 1.38855
thorax -1.72016 0.617938 3.27886
lowerneck -17.3614 2.21996 -8.5817
upperneck 30.0993 5.43141 0.976418
head 12.6696 1.45431 2.66792
rclavicle -2.21645e-014 -5.1684e-015
rhumerus -20.9373 4.63487 -75.0094
rradius 80.0401
rwrist 20.5454
rhand -31.6499 7.05965
rfingers 7.12502
rthumb -4.91069 -22.8634
lclavicle -2.21645e-014 -5.1684e-015
lhumerus -23.2562 -19.2906 90.2672
lradius 72.1844
lwrist -7.1446
lhand -23.8652 12.2102
lfingers 7.12502
lthumb 2.60751 42.174
rfemur -57.1114 -21.0905 18.1609
rtibia 102.652
rfoot 15.7243 -9.54033
rtoes 7.77533
lfemur -51.2329 23.2516 -25.0529
ltibia 98.6494
lfoot 11.5868 -4.45817
ltoes -17.5035
397
root 0.672579 15.736 -3.59679 342.404 -39.7241 -356.11
lowerback 21.3086 2.18125 -3.86547
upperback 9.62161 1.85223 1.28383
thorax -1.59703 0.657401 3.15975
lowerneck -17.7849 2.29606 -8.44357
upperneck 30.0318 5.54065 1.01225
head 12.7249 1.52497 2.68461
rclavicle -2.36554e-014 4.29375e-014
rhumerus -20.7512 5.24052 -75.3408
rradius 80.3432
rwrist 21.3642
rhand -31.0913 7.39732
rfingers 7.12502
rthumb -4.37129 -22.5376
lclavicle -2.36554e-014 4.29375e-014
lhumerus -23.2624 -19.88 90.5329
lradius 71.9385
lwrist -7.1591
lhand -23.5443 12.1279
lfingers 7.12502
lthumb 2.91748 42.0877
rfemur -56.7169 -21.1865 17.9923
rtibia 102.745
rfoot 15.5702 -9.53735
rtoes 7.94716
lfemur -50.6696 23.3994 -25.1213
ltibia 98.6776
lfoot 11.3681 -4.65913
ltoes -18.3202
398
root 0.672017 15.7399 -3.59208 342.332 -39.7206 -356.05
lowerback 21.1989 2.23615 -3.81571
upperback 9.63361 1.93612 1.20836
thorax -1.53273 0.701571 3.03357
lowerneck -18.1574 2.33834 -8.22326
upperneck 29.9247 5.58699 0.978754
head 12.7625 1.56982 2.64948
rclavicle 7.25564e-015 -4.13472e-014
rhumerus -20.5663 5.82734 -75.6807
rradius 80.5882
rwrist 22.1329
rhand -30.5252 7.78035
rfingers 7.12502
rthumb -3.82464 -22.1651
lclavicle 7.25564e-015 -4.13472e-014
lhumerus -23.2605 -20.4413 90.7967
lradius 71.606
lwrist -7.01437
lhand -23.219 12.0905
lfingers 7.12502
lthumb 3.23158 42.0458
rfemur -56.3741 -21.3364 17.9647
rtibia 102.878
rfoot 15.3054 -9.72555
rtoes 8.55741
lfemur -50.2337 23.5116 -25.0407
ltibia 98.7902
lfoot 10.7363 -4.49343
ltoes -20.8608
399
root 0.671187 15.7395 -3.58765 342.312 -39.6787 -356.08
lowerback 21.1855 2.27741 -3.70636
upperback 9.57012 2.0133 1.18889
thorax -1.59805 0.747486 2.93254
lowerneck -18.3718 2.34262 -8.10327
upperneck 29.8073 5.58977 0.946111
head 12.7632 1.5857 2.62028
rclavicle -5.17834e-014 1.82882e-014
rhumerus -20.5456 6.51059 -75.9557
rradius 80.8848
rwrist 22.7688
rhand -30.0589 7.98281
rfingers 7.12502
rthumb -3.37433 -21.9702
lclavicle -5.17834e-014 1.82882e-014
lhumerus -23.3861 -20.8611 91.1814
lradius 71.2129
lwrist -6.69025
lhand -22.5119 12.1244
lfingers 7.12502
lthumb 3.91449 42.0682
rfemur -56.0068 -21.531 18.0198
rtibia 102.985
rfoot 15.096 -9.89671
rtoes 9.62844
lfemur -49.8265 23.5946 -24.8959
ltibia 98.918
lfoot 10.6526 -4.67216
ltoes -21.855
